<svg id="visual" viewBox="0 0 900 300" width="900" height="300" xmlns="http://www.w3.org/2000/svg" xmlns:xlink="http://www.w3.org/1999/xlink" version="1.1"><rect x="0" y="0" width="900" height="300" fill="#7a6ad8"></rect><path d="M0 192L12.5 196.7C25 201.3 50 210.7 75 212.5C100 214.3 125 208.7 150 205.8C175 203 200 203 225 199.3C250 195.7 275 188.3 300 185C325 181.7 350 182.3 375 193.5C400 204.7 425 226.3 450 240.8C475 255.3 500 262.7 525 267.2C550 271.7 575 273.3 600 266.7C625 260 650 245 675 230.5C700 216 725 202 750 197C775 192 800 196 825 200.7C850 205.3 875 210.7 887.5 213.3L900 216L900 301L887.5 301C875 301 850 301 825 301C800 301 775 301 750 301C725 301 700 301 675 301C650 301 625 301 600 301C575 301 550 301 525 301C500 301 475 301 450 301C425 301 400 301 375 301C350 301 325 301 300 301C275 301 250 301 225 301C200 301 175 301 150 301C125 301 100 301 75 301C50 301 25 301 12.5 301L0 301Z" fill="#1dfe92"></path><path d="M0 234L12.5 235.5C25 237 50 240 75 239.5C100 239 125 235 150 239.2C175 243.3 200 255.7 225 252.2C250 248.7 275 229.3 300 231.3C325 233.3 350 256.7 375 264.3C400 272 425 264 450 259C475 254 500 252 525 246.3C550 240.7 575 231.3 600 229.2C625 227 650 232 675 232.3C700 232.7 725 228.3 750 236.3C775 244.3 800 264.7 825 267.8C850 271 875 257 887.5 250L900 243L900 301L887.5 301C875 301 850 301 825 301C800 301 775 301 750 301C725 301 700 301 675 301C650 301 625 301 600 301C575 301 550 301 525 301C500 301 475 301 450 301C425 301 400 301 375 301C350 301 325 301 300 301C275 301 250 301 225 301C200 301 175 301 150 301C125 301 100 301 75 301C50 301 25 301 12.5 301L0 301Z" fill="#1dfe92"></path></svg>