<svg id="visual" viewBox="0 0 900 300" width="900" height="300" xmlns="http://www.w3.org/2000/svg" xmlns:xlink="http://www.w3.org/1999/xlink" version="1.1"><rect x="0" y="0" width="900" height="300" fill="#7a6ad8"></rect><path d="M0 215L21.5 222C43 229 86 243 128.8 239.7C171.7 236.3 214.3 215.7 257.2 215.2C300 214.7 343 234.3 385.8 241.8C428.7 249.3 471.3 244.7 514.2 234.5C557 224.3 600 208.7 642.8 207.2C685.7 205.7 728.3 218.3 771.2 220.8C814 223.3 857 215.7 878.5 211.8L900 208L900 301L878.5 301C857 301 814 301 771.2 301C728.3 301 685.7 301 642.8 301C600 301 557 301 514.2 301C471.3 301 428.7 301 385.8 301C343 301 300 301 257.2 301C214.3 301 171.7 301 128.8 301C86 301 43 301 21.5 301L0 301Z" fill="#05ff87" stroke-linecap="round" stroke-linejoin="miter"></path></svg>