<svg id="visual" viewBox="0 0 900 600" width="900" height="600" xmlns="http://www.w3.org/2000/svg" xmlns:xlink="http://www.w3.org/1999/xlink" version="1.1"><path d="M0 67L82 61L164 67L245 97L327 37L409 103L491 73L573 85L655 55L736 91L818 49L900 55L900 0L818 0L736 0L655 0L573 0L491 0L409 0L327 0L245 0L164 0L82 0L0 0Z" fill="#00cc8e"></path><path d="M0 169L82 163L164 133L245 181L327 139L409 211L491 193L573 169L655 133L736 163L818 169L900 127L900 53L818 47L736 89L655 53L573 83L491 71L409 101L327 35L245 95L164 65L82 59L0 65Z" fill="#00b98a"></path><path d="M0 409L82 307L164 355L245 277L327 289L409 349L491 355L573 331L655 211L736 331L818 277L900 277L900 125L818 167L736 161L655 131L573 167L491 191L409 209L327 137L245 179L164 131L82 161L0 167Z" fill="#00a784"></path><path d="M0 463L82 445L164 505L245 361L327 385L409 487L491 469L573 469L655 349L736 397L818 373L900 337L900 275L818 275L736 329L655 209L573 329L491 353L409 347L327 287L245 275L164 353L82 305L0 407Z" fill="#00957c"></path><path d="M0 601L82 601L164 601L245 601L327 601L409 601L491 601L573 601L655 601L736 601L818 601L900 601L900 335L818 371L736 395L655 347L573 467L491 467L409 485L327 383L245 359L164 503L82 443L0 461Z" fill="#038373"></path></svg>