<svg id="visual" viewBox="0 0 900 600" width="900" height="600" xmlns="http://www.w3.org/2000/svg" xmlns:xlink="http://www.w3.org/1999/xlink" version="1.1"><path d="M0 205L13.7 188C27.3 171 54.7 137 82 142C109.3 147 136.7 191 163.8 202C191 213 218 191 245.2 197C272.3 203 299.7 237 327 224C354.3 211 381.7 151 409 145C436.3 139 463.7 187 491 212C518.3 237 545.7 239 573 241C600.3 243 627.7 245 654.8 232C682 219 709 191 736.2 182C763.3 173 790.7 183 818 196C845.3 209 872.7 225 886.3 233L900 241L900 0L886.3 0C872.7 0 845.3 0 818 0C790.7 0 763.3 0 736.2 0C709 0 682 0 654.8 0C627.7 0 600.3 0 573 0C545.7 0 518.3 0 491 0C463.7 0 436.3 0 409 0C381.7 0 354.3 0 327 0C299.7 0 272.3 0 245.2 0C218 0 191 0 163.8 0C136.7 0 109.3 0 82 0C54.7 0 27.3 0 13.7 0L0 0Z" fill="#6198ff"></path><path d="M0 289L13.7 274C27.3 259 54.7 229 82 228C109.3 227 136.7 255 163.8 269C191 283 218 283 245.2 291C272.3 299 299.7 315 327 300C354.3 285 381.7 239 409 235C436.3 231 463.7 269 491 288C518.3 307 545.7 307 573 312C600.3 317 627.7 327 654.8 310C682 293 709 249 736.2 244C763.3 239 790.7 273 818 294C845.3 315 872.7 323 886.3 327L900 331L900 239L886.3 231C872.7 223 845.3 207 818 194C790.7 181 763.3 171 736.2 180C709 189 682 217 654.8 230C627.7 243 600.3 241 573 239C545.7 237 518.3 235 491 210C463.7 185 436.3 137 409 143C381.7 149 354.3 209 327 222C299.7 235 272.3 201 245.2 195C218 189 191 211 163.8 200C136.7 189 109.3 145 82 140C54.7 135 27.3 169 13.7 186L0 203Z" fill="#3c80ff"></path><path d="M0 433L13.7 439C27.3 445 54.7 457 82 460C109.3 463 136.7 457 163.8 453C191 449 218 447 245.2 446C272.3 445 299.7 445 327 436C354.3 427 381.7 409 409 415C436.3 421 463.7 451 491 452C518.3 453 545.7 425 573 419C600.3 413 627.7 429 654.8 431C682 433 709 421 736.2 416C763.3 411 790.7 413 818 430C845.3 447 872.7 479 886.3 495L900 511L900 329L886.3 325C872.7 321 845.3 313 818 292C790.7 271 763.3 237 736.2 242C709 247 682 291 654.8 308C627.7 325 600.3 315 573 310C545.7 305 518.3 305 491 286C463.7 267 436.3 229 409 233C381.7 237 354.3 283 327 298C299.7 313 272.3 297 245.2 289C218 281 191 281 163.8 267C136.7 253 109.3 225 82 226C54.7 227 27.3 257 13.7 272L0 287Z" fill="#0066ff"></path><path d="M0 529L13.7 526C27.3 523 54.7 517 82 513C109.3 509 136.7 507 163.8 508C191 509 218 513 245.2 514C272.3 515 299.7 513 327 502C354.3 491 381.7 471 409 474C436.3 477 463.7 503 491 505C518.3 507 545.7 485 573 477C600.3 469 627.7 475 654.8 472C682 469 709 457 736.2 459C763.3 461 790.7 477 818 494C845.3 511 872.7 529 886.3 538L900 547L900 509L886.3 493C872.7 477 845.3 445 818 428C790.7 411 763.3 409 736.2 414C709 419 682 431 654.8 429C627.7 427 600.3 411 573 417C545.7 423 518.3 451 491 450C463.7 449 436.3 419 409 413C381.7 407 354.3 425 327 434C299.7 443 272.3 443 245.2 444C218 445 191 447 163.8 451C136.7 455 109.3 461 82 458C54.7 455 27.3 443 13.7 437L0 431Z" fill="#0059dd"></path><path d="M0 601L13.7 601C27.3 601 54.7 601 82 601C109.3 601 136.7 601 163.8 601C191 601 218 601 245.2 601C272.3 601 299.7 601 327 601C354.3 601 381.7 601 409 601C436.3 601 463.7 601 491 601C518.3 601 545.7 601 573 601C600.3 601 627.7 601 654.8 601C682 601 709 601 736.2 601C763.3 601 790.7 601 818 601C845.3 601 872.7 601 886.3 601L900 601L900 545L886.3 536C872.7 527 845.3 509 818 492C790.7 475 763.3 459 736.2 457C709 455 682 467 654.8 470C627.7 473 600.3 467 573 475C545.7 483 518.3 505 491 503C463.7 501 436.3 475 409 472C381.7 469 354.3 489 327 500C299.7 511 272.3 513 245.2 512C218 511 191 507 163.8 506C136.7 505 109.3 507 82 511C54.7 515 27.3 521 13.7 524L0 527Z" fill="#004cbb"></path></svg>