<svg id="visual" viewBox="0 0 900 300" width="900" height="300" xmlns="http://www.w3.org/2000/svg" xmlns:xlink="http://www.w3.org/1999/xlink" version="1.1"><rect x="0" y="0" width="900" height="300" fill="#f5f5f9"></rect><defs><linearGradient id="grad1_0" x1="66.7%" y1="0%" x2="100%" y2="100%"><stop offset="-10%" stop-color="#7a6ad8" stop-opacity="1"></stop><stop offset="110%" stop-color="#7a6ad8" stop-opacity="1"></stop></linearGradient></defs><defs><linearGradient id="grad1_1" x1="66.7%" y1="0%" x2="100%" y2="100%"><stop offset="-10%" stop-color="#7a6ad8" stop-opacity="1"></stop><stop offset="110%" stop-color="#b4afec" stop-opacity="1"></stop></linearGradient></defs><defs><linearGradient id="grad1_2" x1="66.7%" y1="0%" x2="100%" y2="100%"><stop offset="-10%" stop-color="#f5f5f9" stop-opacity="1"></stop><stop offset="110%" stop-color="#b4afec" stop-opacity="1"></stop></linearGradient></defs><defs><linearGradient id="grad2_0" x1="0%" y1="0%" x2="33.3%" y2="100%"><stop offset="-10%" stop-color="#7a6ad8" stop-opacity="1"></stop><stop offset="110%" stop-color="#7a6ad8" stop-opacity="1"></stop></linearGradient></defs><defs><linearGradient id="grad2_1" x1="0%" y1="0%" x2="33.3%" y2="100%"><stop offset="-10%" stop-color="#b4afec" stop-opacity="1"></stop><stop offset="110%" stop-color="#7a6ad8" stop-opacity="1"></stop></linearGradient></defs><defs><linearGradient id="grad2_2" x1="0%" y1="0%" x2="33.3%" y2="100%"><stop offset="-10%" stop-color="#b4afec" stop-opacity="1"></stop><stop offset="110%" stop-color="#f5f5f9" stop-opacity="1"></stop></linearGradient></defs><g transform="translate(900, 0)"><path d="M0 300C-26.9 294.8 -53.8 289.5 -72.2 269.5C-90.7 249.5 -100.7 214.7 -113 195.7C-125.3 176.7 -140 173.5 -171.8 171.8C-203.7 170.1 -252.7 169.9 -259.8 150C-266.9 130.1 -232.1 90.4 -231.8 62.1C-231.5 33.8 -265.8 16.9 -300 0L0 0Z" fill="#d3d2f3"></path><path d="M0 200C-17.9 196.5 -35.8 193 -48.1 179.7C-60.4 166.3 -67.1 143.1 -75.3 130.5C-83.6 117.8 -93.3 115.7 -114.6 114.6C-135.8 113.4 -168.5 113.3 -173.2 100C-177.9 86.7 -154.7 60.3 -154.5 41.4C-154.4 22.6 -177.2 11.3 -200 0L0 0Z" fill="#968de3"></path><path d="M0 100C-9 98.3 -17.9 96.5 -24.1 89.8C-30.2 83.2 -33.6 71.6 -37.7 65.2C-41.8 58.9 -46.7 57.8 -57.3 57.3C-67.9 56.7 -84.2 56.6 -86.6 50C-89 43.4 -77.4 30.1 -77.3 20.7C-77.2 11.3 -88.6 5.6 -100 0L0 0Z" fill="#7a6ad8"></path></g><g transform="translate(0, 300)"><path d="M0 -300C24 -292.7 47.9 -285.5 75.6 -282.1C103.2 -278.6 134.6 -279 150 -259.8C165.4 -240.6 164.9 -201.8 181.7 -181.7C198.5 -161.6 232.6 -160.2 251.1 -145C269.7 -129.8 272.6 -101 278.2 -74.5C283.7 -48.1 291.9 -24 300 0L0 0Z" fill="#d3d2f3"></path><path d="M0 -200C16 -195.2 31.9 -190.3 50.4 -188C68.8 -185.7 89.7 -186 100 -173.2C110.3 -160.4 110 -134.6 121.2 -121.2C132.3 -107.7 155.1 -106.8 167.4 -96.7C179.8 -86.6 181.8 -67.3 185.5 -49.7C189.2 -32.1 194.6 -16 200 0L0 0Z" fill="#968de3"></path><path d="M0 -100C8 -97.6 16 -95.2 25.2 -94C34.4 -92.9 44.9 -93 50 -86.6C55.1 -80.2 55 -67.3 60.6 -60.6C66.2 -53.9 77.5 -53.4 83.7 -48.3C89.9 -43.3 90.9 -33.7 92.7 -24.8C94.6 -16 97.3 -8 100 0L0 0Z" fill="#7a6ad8"></path></g></svg>